<?xml version="1.0" standalone="no"?>
<!DOCTYPE svg PUBLIC "-//W3C//DTD SVG 20010904//EN"
 "http://www.w3.org/TR/2001/REC-SVG-20010904/DTD/svg10.dtd">
<svg version="1.0" xmlns="http://www.w3.org/2000/svg"
 width="260.000000pt" height="260.000000pt" viewBox="0 0 260.000000 260.000000"
 preserveAspectRatio="xMidYMid meet">
<metadata>
Created by potrace 1.11, written by Peter Selinger 2001-2013
</metadata>
<g transform="translate(0.000000,260.000000) scale(0.100000,-0.100000)"
fill="#000000" stroke="none">
<path d="M0 1300 l0 -1300 1300 0 1300 0 0 156 0 157 -37 -6 c-92 -15 -107
-17 -93 -11 8 4 39 12 70 18 l55 11 3 53 3 52 -43 -6 c-24 -3 -65 -16 -93 -29
-68 -31 -116 -46 -126 -40 -18 12 -99 5 -233 -18 -76 -14 -145 -23 -155 -22
-9 2 -42 9 -73 16 -52 11 -61 10 -112 -11 -45 -18 -69 -21 -124 -17 -37 2 -88
0 -114 -6 -40 -9 -54 -7 -87 8 -33 14 -52 16 -98 10 -32 -5 -141 -9 -243 -10
-102 -1 -194 -3 -205 -5 -11 -1 -49 1 -85 6 -65 8 -65 8 -25 16 22 4 82 19
134 33 122 32 193 40 369 39 78 -1 142 2 142 6 0 4 6 7 13 7 40 -5 300 16 365
29 42 8 95 17 117 20 56 7 148 35 160 48 11 12 38 25 95 46 19 7 73 14 120 15
110 2 187 14 204 30 8 8 16 12 19 9 9 -10 68 7 61 17 -3 5 0 9 5 9 8 0 11 298
11 985 l0 985 -1300 0 -1300 0 0 -1300z m1363 788 c3 -7 145 -317 317 -688
171 -371 314 -681 317 -688 4 -10 -8 -12 -53 -10 l-58 3 -88 190 -87 190 -407
0 -407 0 -86 -192 -86 -193 -59 0 c-42 0 -57 3 -53 13 3 6 148 321 322 700
l318 687 52 0 c33 0 55 -5 58 -12z m977 -1072 c0 -3 -4 -8 -10 -11 -5 -3 -10
-1 -10 4 0 6 5 11 10 11 6 0 10 -2 10 -4z"/>
<path d="M1123 1584 l-181 -399 185 -3 c101 -1 265 -1 363 0 l178 3 -169 370
c-92 204 -174 383 -182 399 -13 28 -17 18 -194 -370z"/>
</g>
</svg>
